.
..............................Site Info...........................

 -   http://www.scenetime.com  *_*   


Scenetime .Always on time . friendly online private torrent community ..

     We care to share . Join us on  http://www.scenetime.com 

    Be the first to get new release at  http://www.scenetime.com

        Seed back for speed


...................................NFO:.................................................E:Michael Jackson - This is it! 3D SBS Bluray DTS - AC3 - orhann .mkv
   General
      Complete name : E:Michael Jackson - This is it! 3D SBS Bluray DTS - AC3 - orhann .mkv
      Format : Matroska
      File size : 11.9 GiB
      Duration : 1h 51mn
      Overall bit rate : 15.3 Mbps
      Encoded date : UTC 2012-06-20 08:27:24
      Writing application : mkvmerge v5.2.0 ('I can't explain') built on Dec 18 2011 18:12:03
      Writing library : libebml v1.2.3 + libmatroska v1.3.0
   Video #1
      ID : 1
      Format : AVC
      Format/Info : Advanced Video Codec
      Format profile : High@L4.1
      Format settings, CABAC : Yes
      Format settings, ReFrames : 4 frames
      Muxing mode : Container profile=Unknown@4.1
      Codec ID : V_MPEG4/ISO/AVC
      Duration : 1h 51mn
      Bit rate : 12.9 Mbps
      Width : 1 920 pixels
      Height : 1 080 pixels
      Display aspect ratio : 16:9
      Frame rate : 23.976 fps
      Resolution : 24 bits
      Colorimetry : 4:2:0
      Scan type : Progressive
      Bits/(Pixel*Frame) : 0.259
      Stream size : 9.99 GiB (84%)
      Writing library : x264 core 107 r1745 4785e8e
      Encoding settings : cabac=1 / ref=4 / deblock=1:-1:-1 / analyse=0x3:0x113 / me=umh / subme=7 / psy=1 / psy_rd=1.00:0.15 / mixed_ref=1 / me_range=16 / chroma_me=1 / trellis=1 / 8x8dct=1 / cqm=0 / deadzone=21,11 / fast_pskip=0 / chroma_qp_offset=-3 / threads=12 / sliced_threads=0 / nr=0 / decimate=1 / interlaced=0 / constrained_intra=0 / bframes=3 / b_pyramid=2 / b_adapt=1 / b_bias=0 / direct=3 / weightb=1 / open_gop=0 / weightp=2 / keyint=250 / keyint_min=23 / scenecut=40 / intra_refresh=0 / rc_lookahead=40 / rc=crf / mbtree=1 / crf=18.0 / qcomp=0.60 / qpmin=10 / qpmax=51 / qpstep=4 / ip_ratio=1.40 / aq=1:1.00
      Language : German
   Audio #2
      ID : 2
      Format : AC-3
      Format/Info : Audio Coding 3
      Codec ID : A_AC3
      Duration : 1h 51mn
      Bit rate mode : Constant
      Bit rate : 640 Kbps
      Channel(s) : 6 channels
      Channel positions : Front: L C R, Surround: L R, LFE
      Sampling rate : 48.0 KHz
      Stream size : 510 MiB (4%)
   Audio #3
      ID : 3
      Format : DTS
      Format/Info : Digital Theater Systems
      Codec ID : A_DTS
      Duration : 1h 51mn
      Bit rate mode : Constant
      Bit rate : 1 510 Kbps
      Channel(s) : 6 channels
      Channel positions : Front: L C R, Surround: L R, LFE
      Sampling rate : 48.0 KHz
      Resolution : 24 bits
      Stream size : 1.17 GiB (10%)